<svg xmlns="http://www.w3.org/2000/svg" width="478.5" height="264.003" viewBox="0 0 478.5 264.003">
  <g id="그룹_15" data-name="그룹 15" transform="translate(-236 -198)">
    <path id="계단라인" d="M1161.63,2438.57v-40.592h476.5v40.592" transform="translate(-924.63 -1976.567)" fill="none" stroke="#010101" stroke-width="2"/>
    <g id="그룹_14" data-name="그룹 14">
      <g id="패스_2936" transform="translate(-846.496 -379)">
        <path id="패스_422" data-name="패스 422" d="M108,223H28a17,17,0,0,1-17-17V18A17,17,0,0,1,28,1h80a17,17,0,0,1,17,17V206a17,17,0,0,1-17,17Z" transform="translate(1260 577)" fill="#fff"/>
        <path id="패스_423" data-name="패스 423" d="M28,2A16,16,0,0,0,12,18V206a16,16,0,0,0,16,16h80a16,16,0,0,0,16-16V18A16,16,0,0,0,108,2H28m0-2h80a18,18,0,0,1,18,18V206a18,18,0,0,1-18,18H28a18,18,0,0,1-18-18V18A18,18,0,0,1,28,0Z" transform="translate(1260 577)" fill="#010101"/>
      </g>
      <g id="사각형_791" transform="translate(465.504 412)" fill="#fff" stroke="#010101" stroke-width="1">
        <rect width="32" height="2" rx="1" stroke="none"/>
        <rect x="0.5" y="0.5" width="31" height="1" rx="0.5" fill="none"/>
      </g>
    </g>
    <g id="컬러하트" transform="translate(654.92 216.209)">
      <path id="color_heart6" d="M10.64.273A30.881,30.881,0,0,1,4.667,5.185,9.3,9.3,0,0,0,.38,9.86,5.65,5.65,0,0,0,0,11.881a6.28,6.28,0,0,0,6.486,6.037c1.669,0,3.25-1.221,4.481-2.392a.294.294,0,0,1,.466,0c1.159,1.118,2.765,2.392,4.481,2.392A6.281,6.281,0,0,0,22.4,11.881a5.834,5.834,0,0,0-.378-2.019,9.228,9.228,0,0,0-4.288-4.678A29.821,29.821,0,0,1,11.76.273a.711.711,0,0,0-1.12,0Z" transform="matrix(-0.799, -0.602, 0.602, -0.799, 17.881, 53.776)" fill="#d50037"/>
      <path id="color_heart2-2" d="M5.856,30.957a17,17,0,0,0-3.287-2.7A5.117,5.117,0,0,1,.209,25.68,3.11,3.11,0,0,1,0,24.568a3.457,3.457,0,0,1,3.57-3.323,3.945,3.945,0,0,1,2.466,1.316.162.162,0,0,0,.256,0,3.92,3.92,0,0,1,2.466-1.317,3.457,3.457,0,0,1,3.569,3.323,3.211,3.211,0,0,1-.208,1.111,5.08,5.08,0,0,1-2.36,2.575,16.415,16.415,0,0,0-3.287,2.7.391.391,0,0,1-.616,0Z" transform="translate(20.828 -18.904)" fill="#f2b2c2"/>
      <path id="color_heart8" d="M3,26.22a8.706,8.706,0,0,0-1.684-1.385A2.622,2.622,0,0,1,.107,23.517,1.593,1.593,0,0,1,0,22.947a1.771,1.771,0,0,1,1.829-1.7,2.021,2.021,0,0,1,1.263.674.083.083,0,0,0,.131,0,2.008,2.008,0,0,1,1.263-.675,1.771,1.771,0,0,1,1.829,1.7,1.645,1.645,0,0,1-.107.569A2.6,2.6,0,0,1,5,24.836,8.409,8.409,0,0,0,3.316,26.22a.2.2,0,0,1-.316,0Z" transform="translate(39.826 -25.245)" fill="#fbe5ea"/>
      <path id="color_heart7" d="M6,9.951a17.413,17.413,0,0,0-3.368-2.77A5.243,5.243,0,0,1,.214,4.544,3.186,3.186,0,0,1,0,3.4,3.542,3.542,0,0,1,3.657,0,4.042,4.042,0,0,1,6.184,1.349a.166.166,0,0,0,.263,0A4.016,4.016,0,0,1,8.974,0a3.542,3.542,0,0,1,3.657,3.4,3.29,3.29,0,0,1-.213,1.138A5.2,5.2,0,0,1,10,7.181a16.818,16.818,0,0,0-3.368,2.77.4.4,0,0,1-.632,0Z" transform="translate(26.992 24.783) rotate(-30)" fill="#e3597c"/>
    </g>
    <g id="컵" transform="translate(286.07 358.793)">
      <g id="패스_2728">
        <path id="패스_424" data-name="패스 424" d="M28.365,45.736H4.139L-.62,6H33.126l-4.76,39.736Z" transform="translate(5.382 15.904)" fill="#fff"/>
        <path id="패스_425" data-name="패스 425" d="M.506,7l4.52,37.736H27.477L32,7H.506M-1.748,5h36l-5,41.736h-26L-1.748,5Z" transform="translate(5.382 15.904)" fill="#010101"/>
      </g>
      <path id="패스_2730" d="M0,15.944.214,3.052,4.362,0" transform="translate(30.665 0.006) rotate(14.98)" fill="none" stroke="#000" stroke-width="2"/>
      <path id="합치기_13" d="M1.128,12.8A1.127,1.127,0,0,1,0,11.668V6.962A1.127,1.127,0,0,1,1.128,5.834H5.173V3.917a1,1,0,0,1,1-1H22.821V1a1,1,0,0,1,1-1h6.606a1,1,0,0,1,1,1V2.917H34.8a1,1,0,0,1,1,1V5.834h5.5a1.128,1.128,0,0,1,1.128,1.128v4.707A1.128,1.128,0,0,1,41.306,12.8Z" transform="translate(0 12.152)"/>
      <g id="그룹_363" transform="translate(15.785 29.922)">
        <path id="사각형_499" d="M0,0H5.638V5.638H0Z" transform="translate(0.001)" fill="#53575a"/>
        <path id="사각형_591" d="M0,0H5.638V5.638H0Z" transform="translate(5.639 5.638)" fill="#53575a"/>
        <path id="사각형_500" d="M0,0H5.638V5.638H0Z" transform="translate(5.639)" fill="#d60037"/>
        <path id="사각형_592" d="M0,0H5.638V5.638H0Z" transform="translate(0 5.638)" fill="#d60037"/>
      </g>
    </g>
    <g id="폭죽" transform="translate(-908.996 -1968.915)">
      <path id="사각형_786" d="M0,0H6V6H0Z" transform="translate(1279.075 2204.697) rotate(45)" fill="#010101"/>
      <path id="사각형_789" d="M0,0H6V6H0Z" transform="translate(1240.439 2239.011) rotate(-45)" fill="#010101"/>
      <path id="사각형_792" d="M0,0H6V6H0Z" transform="translate(1288.561 2249.255) rotate(45)" fill="#010101"/>
      <path id="사각형_794" d="M0,0H6V6H0Z" transform="translate(1247.925 2280.254) rotate(45)" fill="#010101"/>
    </g>
    <g id="사람" transform="translate(-825.95 -611.072)">
      <path id="패스_3012" d="M-6445.36,3717.57v24.584l-17.717,49.474s6.755,11.6,30.08,11.6,30.208-10.452,30.208-10.452l-16.187-50.621-.718-24.584" transform="translate(7861.866 -2838.909)"/>
      <path id="패스_3076" d="M-1627.26,3488.31c-1.624,7.426.539,7.307,0,11.14s-1.228,3.209-2.156,4.2,2.156,3.4,2.156,3.4l6.788-1.508,8.18-1.218,6.439.974s-2.32-8.4-1.45-11.765-3.887-10.5-3.887-10.5-14.445-2.149-16.07,5.277Z" transform="translate(3046.454 -2637.928)" fill="#010101"/>
      <path id="패스_3058" d="M1425.54,867.7l-6.244,1.358-20.673-36.209-5.785,2.059,9.706,25.1,9.693,16.7s.857,14.16,2.845,23.232-.392,13.922-.392,13.922l26.34-.926s-.212-.792,1.32-10.278,5.49-26.668,5.49-26.668l22.334-39.109-7.291-3.48-22.926,34.672-5.722-1.2Z" fill="none" stroke="#010101" stroke-width="2"/>
      <path id="패스_3051" d="M1430.89,875.189l-2.873,7.021s4.729-.117,6.412-1.045" transform="translate(-4.903 -6.193)" fill="none" stroke="#010101" stroke-width="2"/>
      <g id="패스_3056">
        <path id="패스_426" data-name="패스 426" d="M3.937,14.759l-3.89-2.81L1.043,1h6.08l.994,10.928-4.18,2.83Z" transform="translate(1425.971 859.948)" fill="#fff"/>
        <path id="패스_427" data-name="패스 427" d="M1.956,2,1.1,11.472l2.86,2.067,3.113-2.108L6.21,2H1.956M.13,0H8.037l1.13,12.425L3.918,15.979-1,12.425Z" transform="translate(1425.971 859.948)" fill="#010101"/>
      </g>
      <path id="패스_3052" d="M-1629.48,3573.34l-4.91,10.787,3.63,78.276,8.665-1,5.925-82.032Z" transform="translate(3045.23 -2639.928)" fill="#010101"/>
      <path id="패스_3053" d="M-1628.52,3665.67l-8.638,4.469s-.259,1.453,1.667,1.81,7.623-1.3,9.82-.754,2.917-.27,2.917-.27.915.553,0-2.01a16.178,16.178,0,0,1-1-4,1.867,1.867,0,0,1-.358,1.718,1.867,1.867,0,0,1-1.626.662C-1628.256,3667.3-1628.52,3665.67-1628.52,3665.67Z" transform="translate(3045.23 -2640.928)" fill="#010101"/>
      <path id="패스_3054" d="M-1629,3658l1.328,6.563a2.869,2.869,0,0,0,1.875.984,4.921,4.921,0,0,0,2.144-.664l.82-6.3Z" transform="translate(3045.23 -2639.928)" fill="#010101"/>
      <path id="합치기_40" d="M3059.79-2615.97c-4.1-.059-6.229-2.811-8.272-7.454l-.838.058a2.5,2.5,0,0,1-2.668-2.319,2.5,2.5,0,0,1,2.32-2.668l.247-.017a26.06,26.06,0,0,1,2.573-8.986l10.756-.576a30.211,30.211,0,0,1,2.9,8.426l.481-.033a2.5,2.5,0,0,1,2.668,2.32,2.5,2.5,0,0,1-2.319,2.668l-.91.064c-.8,4.587-3.017,8.518-6.858,8.518Z" transform="translate(-1630 3481.666)" fill="#fff" stroke="#010101" stroke-width="2"/>
      <g id="logo" transform="translate(1424.875 889.889)">
        <path id="사각형_499-2" d="M0,0H3.911V3.911H0Z" fill="#53575a"/>
        <path id="사각형_591-2" d="M0,0H3.911V3.911H0Z" transform="translate(3.911 3.911)" fill="#53575a"/>
        <path id="사각형_500-2" d="M0,0H3.911V3.911H0Z" transform="translate(3.911)" fill="#d60037"/>
        <path id="사각형_592-2" d="M0,0H3.911V3.911H0Z" transform="translate(0 3.911)" fill="#d60037"/>
      </g>
      <path id="패스_3065" d="M0,0H2V11L-1.937,9.656Z" transform="translate(1418.454 869.072)" fill="#010101"/>
      <path id="패스_3066" d="M1426.9,857.887c.478-.539,3.443-.638,3.953-.132s-.523,2.364-1.906,2.507S1426.423,858.426,1426.9,857.887Z" transform="translate(1 0.949)" fill="#010101"/>
      <path id="패스_3067" d="M1438.25,867.465h2.008l1.828,11.266-4.079,1.071Z" fill="#010101"/>
      <path id="패스_3068" d="M1393.44,835.045l-1.294-5.4s-4.451-6.658-4.641-9.684,1.841-3.09,3.838-2.276,3.124,4.909,3.124,4.909a24.025,24.025,0,0,0,2.633-2.9c.662-1.029,0,2.1,0,2.1l-1.324,6.84,2.059,4.51" fill="none" stroke="#010101" stroke-width="2"/>
      <path id="패스_3069" d="M1414.07,903.154s15.448,17.93,29.707.792" fill="none" stroke="#fff" stroke-width="1"/>
      <path id="패스_3070" d="M1428.94,911.811l-6.544,3.075s4.583,6.5,8.528-3.075" transform="translate(0 -0.569)" fill="none" stroke="#fff" stroke-width="1"/>
      <path id="패스_3071" d="M1424.38,911.811l6.544,3.075s-4.583,6.5-8.528-3.075" transform="translate(8 -0.569)" fill="none" stroke="#fff" stroke-width="1"/>
      <path id="패스_3072" d="M1428.62,921.242l2.139-9.48,1.664,12.833" fill="none" stroke="#fff" stroke-width="1"/>
      <path id="패스_3073" d="M1431.78,876.059l2.649,6.15s-4.729-.117-6.412-1.045" transform="translate(2.155 -6.194)" fill="none" stroke="#010101" stroke-width="2"/>
      <path id="패스_3074" d="M1391.89,835.045l1.294-5.4s4.451-6.658,4.641-9.684-1.841-3.09-3.838-2.276-3.124,4.909-3.124,4.909a24.034,24.034,0,0,1-2.633-2.9c-.662-1.029,0,2.1,0,2.1l1.324,6.84-2.059,4.51" transform="translate(77.508 1)" fill="none" stroke="#010101" stroke-width="2"/>
      <path id="패스_3078" d="M1394.98,839.921l5.589-2.745" fill="none" stroke="#010101" stroke-width="2"/>
      <path id="패스_3079" d="M1460.77,837.176l6.863,3.333" fill="none" stroke="#010101" stroke-width="2"/>
      <path id="패스_3077" d="M-1627.63,3491.28s6.783,5.712,9.238-2.722c2.236-7.684,3.953-1.516,7.2.723.028.033-.159,2.479.159,2.586.393.133,1.224-2.035,1.815-1.835,2.1.711,1.532.534,1.532.534s2.856-11.157-8.658-12.272c-4.732-.458-8.35,1.132-9.773,4.061-1.724,3.533-1.513,8.925-1.513,8.925Z" transform="translate(3046.454 -2637.928)" fill="#010101"/>
      <path id="패스_3080" d="M-1621.09,3573.34l4.91,10.787-3.63,78.276-8.665-1-5.925-82.032Z" transform="translate(3064.789 -2639.928)" fill="#010101"/>
      <path id="패스_3081" d="M-1630.99,3665.67l8.638,4.469s.259,1.453-1.667,1.81-7.623-1.3-9.82-.754-2.917-.27-2.917-.27-.915.553,0-2.01a16.183,16.183,0,0,0,1-4,1.867,1.867,0,0,0,.359,1.718,1.867,1.867,0,0,0,1.626.661C-1631.253,3667.3-1630.99,3665.67-1630.99,3665.67Z" transform="translate(3073.726 -2640.928)" fill="#010101"/>
      <path id="패스_3082" d="M-1622.83,3658l-1.328,6.563a2.868,2.868,0,0,1-1.875.984,4.918,4.918,0,0,1-2.144-.664l-.82-6.3Z" transform="translate(3066.051 -2639.928)" fill="#010101"/>
    </g>
    <g id="케이크" transform="translate(-1127.996 -1924.915)">
      <g id="패스_2880">
        <path id="패스_428" data-name="패스 428" d="M19.968,42H-7.4c1.9-2.058,4.656-6.017,6.26-12.75A101.453,101.453,0,0,0,.877,10.607c.156-4.278.15-7.913.135-9.608H11.977c-.032,1.767-.073,5.627.05,10.139.228,8.312.878,14.769,1.93,19.19C15.45,36.6,18.016,40.119,19.967,42Z" transform="translate(1494.5 2303.915)" fill="#fff"/>
        <path id="패스_429" data-name="패스 429" d="M2.02,2c.006,1.933-.012,5.066-.143,8.644A102.019,102.019,0,0,1-.173,29.481,31.142,31.142,0,0,1-5.285,41h23.01a26.512,26.512,0,0,1-4.738-10.44c-1.07-4.487-1.727-11.013-1.957-19.394-.1-3.8-.092-7.138-.066-9.166H2.019M0,0H13s-.569,19.6,1.931,30.1S23,43,23,43H-10s5.382-3.482,7.882-13.982S0,0,0,0Z" transform="translate(1494.5 2303.915)" fill="#010101"/>
      </g>
      <g id="사각형_707">
        <path id="패스_430" data-name="패스 430" d="M0,0H61V10H0Z" transform="translate(1470.5 2301.915)" fill="#fff"/>
        <path id="패스_431" data-name="패스 431" d="M1,1H60V9H1Z" transform="translate(1470.5 2301.915)" fill="none" stroke="#010101" stroke-width="2"/>
      </g>
      <g id="그룹_5" transform="translate(1325.5 1905.481)">
        <g id="패스_2481">
          <path id="패스_432" data-name="패스 432" d="M44,26H1V1H44Z" transform="translate(153 371.062)" fill="#fff"/>
          <path id="패스_433" data-name="패스 433" d="M2,2V25H43V2H2M0,0H45V27H0Z" transform="translate(153 371.062)" fill="#010101"/>
        </g>
        <g id="사각형_21">
          <path id="패스_434" data-name="패스 434" d="M0,0H43V2H0Z" transform="translate(154 391)" fill="#010101"/>
          <path id="패스_435" data-name="패스 435" d="M.5.5h42v1H.5Z" transform="translate(154 391)" fill="none" stroke="#000" stroke-width="1"/>
        </g>
        <g id="사각형_24">
          <path id="패스_436" data-name="패스 436" d="M0,0H2V3H0Z" transform="translate(162.121 376.732) rotate(45)" fill="#fff"/>
          <path id="패스_437" data-name="패스 437" d="M.5.5h1v2H.5Z" transform="translate(162.121 376.732) rotate(45)" fill="none" stroke="#010101" stroke-width="1"/>
        </g>
        <g id="사각형_25">
          <path id="패스_438" data-name="패스 438" d="M0,0H2V3H0Z" transform="translate(158.121 376.732) rotate(45)" fill="#fff"/>
          <path id="패스_439" data-name="패스 439" d="M.5.5h1v2H.5Z" transform="translate(158.121 376.732) rotate(45)" fill="none" stroke="#010101" stroke-width="1"/>
        </g>
        <g id="사각형_26">
          <path id="패스_440" data-name="패스 440" d="M0,0H2V3H0Z" transform="translate(171.121 376.732) rotate(45)" fill="#fff"/>
          <path id="패스_441" data-name="패스 441" d="M.5.5h1v2H.5Z" transform="translate(171.121 376.732) rotate(45)" fill="none" stroke="#010101" stroke-width="1"/>
        </g>
        <g id="사각형_27">
          <path id="패스_442" data-name="패스 442" d="M0,0H2V3H0Z" transform="translate(167.121 376.732) rotate(45)" fill="#fff"/>
          <path id="패스_443" data-name="패스 443" d="M.5.5h1v2H.5Z" transform="translate(167.121 376.732) rotate(45)" fill="none" stroke="#010101" stroke-width="1"/>
        </g>
        <g id="사각형_28">
          <path id="패스_444" data-name="패스 444" d="M0,0H2V3H0Z" transform="translate(180.121 376.732) rotate(45)" fill="#fff"/>
          <path id="패스_445" data-name="패스 445" d="M.5.5h1v2H.5Z" transform="translate(180.121 376.732) rotate(45)" fill="none" stroke="#010101" stroke-width="1"/>
        </g>
        <g id="사각형_29">
          <path id="패스_446" data-name="패스 446" d="M0,0H2V3H0Z" transform="translate(176.121 376.732) rotate(45)" fill="#fff"/>
          <path id="패스_447" data-name="패스 447" d="M.5.5h1v2H.5Z" transform="translate(176.121 376.732) rotate(45)" fill="none" stroke="#010101" stroke-width="1"/>
        </g>
        <g id="사각형_30">
          <path id="패스_448" data-name="패스 448" d="M0,0H2V3H0Z" transform="translate(189.121 376.732) rotate(45)" fill="#fff"/>
          <path id="패스_449" data-name="패스 449" d="M.5.5h1v2H.5Z" transform="translate(189.121 376.732) rotate(45)" fill="none" stroke="#010101" stroke-width="1"/>
        </g>
        <g id="사각형_31">
          <path id="패스_450" data-name="패스 450" d="M0,0H2V3H0Z" transform="translate(184.121 376.732) rotate(45)" fill="#fff"/>
          <path id="패스_451" data-name="패스 451" d="M.5.5h1v2H.5Z" transform="translate(184.121 376.732) rotate(45)" fill="none" stroke="#010101" stroke-width="1"/>
        </g>
        <path id="패스_2501" d="M3-2.381S6,1.343,6,3A3,3,0,1,1,0,3C0,1.343,3-2.381,3-2.381Z" transform="translate(172 357.814)" fill="#d50037"/>
        <g id="사각형_33">
          <path id="패스_452" data-name="패스 452" d="M0,0H2V5H0Z" transform="translate(174 367)" fill="#fff"/>
          <path id="패스_453" data-name="패스 453" d="M.5.5h1v4H.5Z" transform="translate(174 367)" fill="none" stroke="#010101" stroke-width="1"/>
        </g>
        <g id="사각형_34">
          <path id="패스_454" data-name="패스 454" d="M0,0H2V5H0Z" transform="translate(184 367)" fill="#fff"/>
          <path id="패스_455" data-name="패스 455" d="M.5.5h1v4H.5Z" transform="translate(184 367)" fill="none" stroke="#010101" stroke-width="1"/>
        </g>
        <path id="패스_2504" d="M3-2.381S6,1.343,6,3A3,3,0,1,1,0,3C0,1.343,3-2.381,3-2.381Z" transform="translate(182 357.814)" fill="#d50037"/>
        <g id="사각형_32">
          <path id="패스_456" data-name="패스 456" d="M0,0H2V5H0Z" transform="translate(164 367)" fill="#fff"/>
          <path id="패스_457" data-name="패스 457" d="M.5.5h1v4H.5Z" transform="translate(164 367)" fill="none" stroke="#010101" stroke-width="1"/>
        </g>
        <path id="패스_2508" d="M3-2.381S6,1.343,6,3A3,3,0,1,1,0,3C0,1.343,3-2.381,3-2.381Z" transform="translate(162 357.814)" fill="#d50037"/>
        <g id="사각형_708">
          <path id="패스_458" data-name="패스 458" d="M0,0H2V3H0Z" transform="translate(193.121 376.732) rotate(45)" fill="#fff"/>
          <path id="패스_459" data-name="패스 459" d="M.5.5h1v2H.5Z" transform="translate(193.121 376.732) rotate(45)" fill="none" stroke="#010101" stroke-width="1"/>
        </g>
      </g>
      <path id="패스_2881" d="M0,0H11V8A16.422,16.422,0,0,0,5.193,6.589,11.736,11.736,0,0,0,0,8Z" transform="translate(1495.5 2310.915)" fill="#010101"/>
    </g>
    <path id="사각형_790" d="M0,0H56V2A10,10,0,0,1,46,12H10A10,10,0,0,1,0,2Z" transform="translate(453.504 199)" fill="#010101"/>
    <g id="폰안하트" transform="translate(-961.023 -2033.92)">
      <g id="그룹_405" transform="translate(-2.456 -1.994)">
        <path id="color_heart2" d="M14.053,45.12a41.034,41.034,0,0,0-7.889-6.646C1.8,35.829.7,32.673.5,32.148A7.81,7.81,0,0,1,0,29.414a8.384,8.384,0,0,1,8.567-8.169c2.2,0,4.292,1.652,5.918,3.236a.383.383,0,0,0,.616,0c1.531-1.513,3.652-3.237,5.918-3.237a8.384,8.384,0,0,1,8.566,8.169,8.064,8.064,0,0,1-.5,2.731,12.416,12.416,0,0,1-5.664,6.329,39.629,39.629,0,0,0-7.889,6.646.925.925,0,0,1-1.479,0Z" transform="translate(1429.983 2345.67)" fill="#010101"/>
      </g>
      <g id="타원_159" transform="translate(1412.527 2345.92)" fill="none" stroke="#010101" stroke-width="3" stroke-dasharray="1 3">
        <circle cx="30" cy="30" r="30" stroke="none"/>
        <circle cx="30" cy="30" r="28.5" fill="none"/>
      </g>
      <path id="합치기_39" d="M850-1374.08v-3h-3v-2h3v-3h2v3h3v2h-3v3Z" transform="translate(591.527 3755.004)" fill="#fff"/>
    </g>
    <g id="그룹_13" data-name="그룹 13" transform="translate(69.72 -89.572)">
      <path id="패스_1" data-name="패스 1" d="M585.833,365.2c-.233-.054-.619-.133-.928-.2l-.189-.039c-.106-.021-.2-.041-.288-.064-.611-.122-.99-.26-.99-.574a.478.478,0,0,1,.148-.342,1.288,1.288,0,0,1,.913-.313h.06a3.508,3.508,0,0,1,2.22.833l.068.061.525-1.021-.051-.035a4.374,4.374,0,0,0-2.686-.912,2.892,2.892,0,0,0-2.007.758,1.5,1.5,0,0,0-.453,1.123c.031,1.209,1.367,1.535,2.866,1.786.64.107,1.095.212,1.119.586a.488.488,0,0,1-.15.347,1.715,1.715,0,0,1-1.2.357h-.062a3.791,3.791,0,0,1-2.179-.867l-.072-.064-.49,1.086.049.033a5.178,5.178,0,0,0,2.7.873,2.99,2.99,0,0,0,2.194-.724,1.568,1.568,0,0,0,.458-1.174c-.022-.808-.522-1.29-1.573-1.518" transform="translate(-184.858 -0.02)" fill="#222"/>
      <path id="패스_2" data-name="패스 2" d="M536.184,362.6a3.171,3.171,0,0,0-2.39.953,2.963,2.963,0,0,0-.843,2.075,2.87,2.87,0,0,0,.973,2.163,3.481,3.481,0,0,0,4.505,0,2.834,2.834,0,0,0,.973-2.163,2.957,2.957,0,0,0-.828-2.074,3.206,3.206,0,0,0-2.39-.954m1.374,4.348a1.985,1.985,0,0,1-2.759,0,1.852,1.852,0,0,1-.566-1.321,1.95,1.95,0,0,1,3.9,0,1.828,1.828,0,0,1-.576,1.321" transform="translate(-142.825 -0.02)" fill="#222"/>
      <path id="패스_3" data-name="패스 3" d="M478.141,364.108l-1.231,3.79-1.227-3.79h-1.252l-1.232,3.784-1.229-3.784h-1.312l1.918,5.536.029.048h1.207l1.246-3.655,1.247,3.655h1.216l1.929-5.583Z" transform="translate(-89.446 -1.315)" fill="#222"/>
      <path id="패스_4" data-name="패스 4" d="M425.218,365.135h2.34v4.556h1.289v-4.556h2.34v-1.027h-5.97Z" transform="translate(-50.468 -1.315)" fill="#222"/>
      <path id="패스_5" data-name="패스 5" d="M368.842,364.108l-2.562,5.583h1.314l.611-1.383h2.543l.625,1.383H372.7l-2.561-5.583Zm-.172,3.17.813-1.791.814,1.791Z" transform="translate(0 -1.315)" fill="#222"/>
      <path id="패스_6" data-name="패스 6" d="M923.632,366.655a2.454,2.454,0,0,1-1.871.826h-.019a1.989,1.989,0,0,1-2.014-1.9,1.839,1.839,0,0,1,.531-1.33,2.079,2.079,0,0,1,1.47-.577,2.611,2.611,0,0,1,1.9.8l.063.061.611-.974-.048-.039a3.854,3.854,0,0,0-2.533-.956,3.574,3.574,0,0,0-2.174.782,2.862,2.862,0,0,0-1.088,2.258,3.105,3.105,0,0,0,3.163,2.977q.088,0,.176,0a3.67,3.67,0,0,0,2.515-1.015l.046-.042-.667-.95Z" transform="translate(-473.201 0)" fill="#222"/>
      <path id="패스_7" data-name="패스 7" d="M834.657,364.108h-1.238v5.583h4.855v-1.052h-3.617Z" transform="translate(-400.299 -1.315)" fill="#222"/>
      <path id="패스_8" data-name="패스 8" d="M627.509,362.6a3.155,3.155,0,0,0-2.391.953,2.97,2.97,0,0,0-.841,2.075,2.867,2.867,0,0,0,.973,2.163,3.375,3.375,0,0,0,2.258.828,3.427,3.427,0,0,0,2.26-.828,2.879,2.879,0,0,0,.967-2.162,2.983,2.983,0,0,0-.836-2.074,3.222,3.222,0,0,0-2.391-.954m1.371,4.348a1.907,1.907,0,0,1-1.371.557,1.956,1.956,0,0,1-1.387-.557,1.852,1.852,0,0,1-.567-1.321,1.95,1.95,0,0,1,3.9,0,1.83,1.83,0,0,1-.575,1.321" transform="translate(-221.085 -0.02)" fill="#222"/>
      <path id="패스_9" data-name="패스 9" d="M967.885,368.535v-1.41h3.283v-1.036h-3.283V365h3.391v-1.034h-4.629v5.6h4.728v-1.031Z" transform="translate(-514.463 -1.19)" fill="#222"/>
      <path id="패스_10" data-name="패스 10" d="M875.379,364.108l-2.574,5.583h1.318l.612-1.383h2.54l.63,1.383h1.321l-2.563-5.583Zm-.18,3.17.813-1.792.811,1.792Z" transform="translate(-434.108 -1.315)" fill="#222"/>
      <path id="패스_11" data-name="패스 11" d="M793.4,364.338a3,3,0,0,0-1.59-.346h-3.155V369.6h1.312v-1.782H791.8a3.008,3.008,0,0,0,1.579-.35,1.966,1.966,0,0,0,.023-3.13m-1.441,2.428h-1.993v-1.714h1.993a1.034,1.034,0,0,1,.628.205.782.782,0,0,1,.288.652.861.861,0,0,1-.915.857" transform="translate(-361.946 -1.216)" fill="#222"/>
      <path id="패스_12" data-name="패스 12" d="M679.144,366.989l-1.7-2.881h-1.5v5.583h1.238v-3.732l1.627,2.663h.682l1.613-2.654v3.723h1.247v-5.583h-1.5Z" transform="translate(-265.363 -1.315)" fill="#222"/>
      <path id="패스_13" data-name="패스 13" d="M730.52,367.124H733.8v-1.036H730.52V365H733.9v-1.034h-4.617v5.6h4.728v-1.032H730.52Z" transform="translate(-311.062 -1.19)" fill="#222"/>
    </g>
  </g>
</svg>
